<svg xmlns="http://www.w3.org/2000/svg" version="1.1" xmlns:xlink="http://www.w3.org/1999/xlink" xmlns:svgjs="http://svgjs.dev/svgjs" width="1000" height="174" viewBox="0 0 1000 174"><g transform="matrix(1,0,0,1,-0.606043841976657,0.09426167861904844)"><svg viewBox="0 0 396 69" data-background-color="#161618" preserveAspectRatio="xMidYMid meet" height="174" width="1000" xmlns="http://www.w3.org/2000/svg" xmlns:xlink="http://www.w3.org/1999/xlink"><g id="tight-bounds" transform="matrix(1,0,0,1,0.2399936527431521,-0.037379631176520434)"><svg viewBox="0 0 395.5199999999999 69.07475926235304" height="69.07475926235304" width="395.5199999999999"><g><svg viewBox="0 0 503.0261174075114 87.84993922582926" height="69.07475926235304" width="395.5199999999999"><g><rect width="5.0291517826466166" height="87.84993922582926" x="89.31164682212496" y="0" fill="#ffffff" opacity="1" stroke-width="0" stroke="transparent" fill-opacity="1" class="rect-o-0" data-fill-palette-color="primary" rx="1%" id="o-0" data-palette-color="#ffffff"></rect></g><g transform="matrix(1,0,0,1,107.50611740751141,0.21853218712892186)"><svg viewBox="0 0 395.52 87.41287485157142" height="87.41287485157142" width="395.52"><g id="textblocktransform"><svg viewBox="0 0 395.52 87.41287485157142" height="87.41287485157142" width="395.52" id="textblock"><g><svg viewBox="0 0 395.52 55.7672902062888" height="55.7672902062888" width="395.52"><g transform="matrix(1,0,0,1,0,0)"><svg width="395.52" viewBox="2.299999952316284 -35 249.62998962402344 35.20000076293945" height="55.7672902062888" data-palette-color="#ffffff"><path d="M4.95-33.95L2.3-34.25 2.35-35 23.75-35 23.7-34.85 24.35-27.8 23.35-27.4 22.55-34 8.95-34 8.95-17.85 20.9-17.85Q21.15-17.8 21.35-17.98 21.55-18.15 21.55-18.45L21.55-18.45 21.75-21.9 22.55-22 22.55-13.45Q22.5-13.45 21.8-13.4L21.8-13.4 21.6-16.85 8.95-16.85 8.95-1 23.9-1 24.85-9 25.8-8.75 25.05 0 12.35 0 2.3 0.05 2.35-0.65 4.95-1Q5.45-1.05 5.55-1.65L5.55-1.65 5.55-33.3Q5.45-33.9 4.95-33.95L4.95-33.95ZM29.05-34.4L29.05-34.4 29.15-35 39.55-35Q45.7-35 48.67-32.9 51.65-30.8 51.65-24.98 51.65-19.15 48.57-16.38 45.5-13.6 39.55-13.6L39.55-13.6 35.7-13.6 35.7-0.95 39.15-0.75Q39.15-0.7 39.1 0L39.1 0 29.1 0.05Q29.1-0.4 29.15-0.65L29.15-0.65 31.75-1Q32.1-1.05 32.3-1.45L32.3-1.45 32.3-33.45Q32.1-33.9 31.75-33.95L31.75-33.95 29.1-34.25Q29.05-34.3 29.05-34.4ZM39.3-34.25L39.3-34.25 35.7-34.25 35.7-14.35 39.3-14.35Q43.8-14.35 46.02-16.75 48.25-19.15 48.25-24.78 48.25-30.4 46.05-32.33 43.85-34.25 39.3-34.25ZM64.84 0L54.8 0.05 54.84-0.65 57.45-1Q57.95-1.05 58.05-1.65L58.05-1.65 58.09-1.65 58.09-33.25 58.05-33.25Q57.95-33.9 57.45-33.95L57.45-33.95 54.84-34.2 54.8-34.95 64.84-35Q64.84-34.95 64.9-34.25L64.9-34.25 61.5-33.95 61.5-0.95 64.9-0.75Q64.9-0.7 64.84 0L64.84 0ZM84.49-34.3L84.49-34.3Q78.84-34.3 75.54-29.6 72.24-24.9 72.24-16L72.24-16Q72.24-5.2 77.19-2.05L77.19-2.05Q78.69-1.1 79.97-0.83 81.24-0.55 82.79-0.55L82.79-0.55Q87.74-0.55 93.14-1.75L93.14-1.75 93.29-1.05Q92.44-0.75 88.77-0.28 85.09 0.2 82.79 0.2 80.49 0.2 78.79-0.13 77.09-0.45 75.19-1.5 73.29-2.55 71.97-4.28 70.64-6 69.74-9 68.84-12 68.84-16L68.84-16Q68.84-24.85 72.89-29.8L72.89-29.8Q77.14-35 84.49-35L84.49-35Q86.74-35 89.37-34.58 91.99-34.15 93.09-33.75L93.09-33.75 93.69-26.55 92.74-26.2 92.09-31.55Q88.04-34.3 84.49-34.3ZM97.19-34.95L107.19-35Q107.19-34.95 107.24-34.25L107.24-34.25 103.84-33.95 103.84-15.05Q103.84-6.35 106.89-3.5L106.89-3.5Q108.34-2.1 109.84-1.58 111.34-1.05 113.37-1.05 115.39-1.05 117.04-1.6 118.69-2.15 120.24-3.6L120.24-3.6Q123.54-6.6 123.54-15.05L123.54-15.05 123.54-33.15Q123.44-33.8 122.94-33.85L122.94-33.85 119.34-34.2Q119.29-34.5 119.29-34.95L119.29-34.95 128.79-35Q128.79-34.95 128.84-34.25L128.84-34.25 124.69-33.8 124.69-15Q124.69 0.2 113.34 0.2L113.34 0.2Q110.59 0.2 108.52-0.38 106.44-0.95 104.49-2.5L104.49-2.5Q100.44-5.65 100.44-15L100.44-15 100.44-33.3Q100.24-33.9 99.84-33.95L99.84-33.95 97.24-34.2Q97.19-34.5 97.19-34.95L97.19-34.95ZM134.09-33.95L131.44-34.25 131.49-35 143.64-35Q148.79-35 151.59-32.75 154.39-30.5 154.39-26.05L154.39-26.05Q154.39-23.15 152.16-20 149.94-16.85 147.99-15.95L147.99-15.95 157.24-0.9 159.69-0.75Q159.69-0.7 159.64 0L159.64 0 154.19 0.05 144.69-15.35 138.04-15.35 138.04-0.95 141.54-0.75Q141.54-0.7 141.49 0L141.49 0 131.44 0.05 131.49-0.65 134.09-1Q134.44-1.05 134.64-1.45L134.64-1.45 134.64-33.45Q134.49-33.9 134.09-33.95L134.09-33.95ZM143.39-34.25L143.39-34.25 138.04-34.25 138.04-16.1 146.59-16.1Q149.19-19.05 150.09-21.33 150.99-23.6 150.99-25.75L150.99-25.75Q150.99-29.95 149.04-32.1 147.09-34.25 143.39-34.25ZM165.14-33.95L162.49-34.25 162.54-35 183.94-35 183.89-34.85 184.54-27.8 183.54-27.4 182.74-34 169.14-34 169.14-17.85 181.09-17.85Q181.34-17.8 181.54-17.98 181.74-18.15 181.74-18.45L181.74-18.45 181.94-21.9 182.74-22 182.74-13.45Q182.69-13.45 181.99-13.4L181.99-13.4 181.79-16.85 169.14-16.85 169.14-1 184.09-1 185.04-9 185.99-8.75 185.24 0 172.54 0 162.49 0.05 162.54-0.65 165.14-1Q165.64-1.05 165.74-1.65L165.74-1.65 165.74-33.3Q165.64-33.9 165.14-33.95L165.14-33.95ZM197.53 0L187.48 0.05 187.53-0.65 190.13-1Q190.48-1.05 190.73-1.65L190.73-1.65 201.53-35 204.83-35 216.33-0.95 219.78-0.75Q219.78-0.7 219.73 0L219.73 0 209.73 0.05Q209.73-0.4 209.78-0.65L209.78-0.65 212.38-1Q212.78-1.05 212.78-1.6L212.78-1.6 210.03-9.75 194.43-9.75 191.78-1.05 197.58-0.75Q197.58-0.7 197.53 0L197.53 0ZM209.68-10.75L201.88-34.05 194.73-10.75 209.68-10.75ZM224.13-33.95L221.48-34.25 221.53-35 228.38-35 247.83-1.4 247.58-33.25Q247.38-33.75 247.03-33.8L247.03-33.8 242.43-34.2Q242.38-34.5 242.38-34.95L242.38-34.95 251.88-35Q251.88-34.95 251.93-34.25L251.93-34.25 248.73-33.9 248.73 0 245.08 0 225.63-33.6 225.88-1.05 231.58-0.75Q231.58-0.7 231.53 0L231.53 0 221.48 0.05 221.53-0.65 224.13-1Q224.63-1.05 224.73-1.65L224.73-1.65 224.73-33.3Q224.63-33.9 224.13-33.95L224.13-33.95Z" opacity="1" transform="matrix(1,0,0,1,0,0)" fill="#ffffff" class="undefined-text-0" data-fill-palette-color="primary" id="text-0"></path></svg></g></svg></g><g transform="matrix(1,0,0,1,0,68.93260900902864)"><svg viewBox="0 0 232.209792 18.480265842542785" height="18.480265842542785" width="232.209792"><g transform="matrix(1,0,0,1,0,0)"><svg width="232.209792" viewBox="4.650000095367432 -32.099998474121094 408.9599914550781 32.54999923706055" height="18.480265842542785" data-palette-color="#ffffff"><path d="M17.7-12.95Q21-7.5 26-0.95L26-0.95 25.95-0.45Q24.15 0.25 22.25 0.45L22.25 0.45 21.7 0.1Q17.6-6.05 14.35-11.9L14.35-11.9 8.5-11.9 8.5-10 8.7 0 4.65 0 4.9-9.65 4.65-32.05 14.45-32.1Q19.15-32.1 21.73-29.73 24.3-27.35 24.3-22.95L24.3-22.95Q24.3-19.65 22.58-17.03 20.85-14.4 17.7-12.95L17.7-12.95ZM8.7-28.65L8.55-15.3 14.55-15.15Q20.15-16.75 20.15-22.6L20.15-22.6Q20.15-25.65 18.5-27.18 16.85-28.7 13.55-28.8L13.55-28.8 8.7-28.65ZM40.8-3L47.45-3.2 47.75-2.9 47.4 0 32.25 0 32.4-7.5 32.25-24.9 47.5-24.9 47.75-24.6 47.45-21.7 41.15-21.9 35.95-21.85 35.9-14.3 40.85-14.25 45.2-14.4 45.45-14.05 45.15-11.1 40.55-11.25 35.9-11.2 35.85-7.8 35.9-3.05 40.8-3ZM67.2-3.15L67.4-2.8 67.15 0 53.9 0 54.05-7.5 53.9-24.9 57.65-24.9 57.5-7.8 57.6-3.15 67.2-3.15ZM83.49-24.9L92.24 0 88.49 0 87.89-2.7 86.59-6.4 80.64-6.45 75.34-6.4 73.99-2.9 73.29 0 69.59 0 79.19-24.9 83.49-24.9ZM80.94-9.4L85.54-9.45 81.39-21.25 81.09-21.25 76.54-9.45 80.94-9.4ZM116.84-24.9L108.49-13 117.44 0 112.94 0 111.79-2.15 105.99-10.1 99.94-1.95 98.84 0 94.89 0 103.79-12.5 95.14-24.9 99.79-24.9 100.84-22.8 106.29-15.35 111.74-22.85 112.79-24.9 116.84-24.9ZM132.29-3L138.94-3.2 139.24-2.9 138.89 0 123.74 0 123.89-7.5 123.74-24.9 138.99-24.9 139.24-24.6 138.94-21.7 132.64-21.9 127.44-21.85 127.39-14.3 132.34-14.25 136.69-14.4 136.94-14.05 136.64-11.1 132.04-11.25 127.39-11.2 127.34-7.8 127.39-3.05 132.29-3ZM155.24-25.1Q160.94-25.1 163.96-22.05 166.99-19 166.99-13.3L166.99-13.3Q166.99-6.75 163.69-3.25 160.39 0.25 154.24 0.25L154.24 0.25Q152.49 0.25 150.06 0.18 147.64 0.1 145.49 0L145.49 0 145.64-7.5 145.49-24.9 155.24-25.1ZM154.84-2.8Q158.84-2.8 161.01-5.23 163.19-7.65 163.19-12.55L163.19-12.55Q163.19-17.35 161.14-19.65 159.09-21.95 154.94-21.95L154.94-21.95Q152.49-21.95 149.19-21.75L149.19-21.75 149.09-7.8 149.14-3.1Q150.59-3 152.19-2.9 153.79-2.8 154.84-2.8L154.84-2.8ZM186.28-32.05L186.03-10 186.23 0 182.18 0 182.43-9.65 182.18-32.05 186.28-32.05ZM216.23-25L216.08-7.45 216.13 0 212.13 0 199.03-19 198.78-19 198.73-8.3 198.83 0 195.43 0 195.58-7.35 195.48-24.9 199.43-24.9 212.53-5.9 212.88-5.9 212.78-24.75 216.23-25ZM234.98-25.1Q240.68-25.1 243.7-22.05 246.73-19 246.73-13.3L246.73-13.3Q246.73-6.75 243.43-3.25 240.13 0.25 233.98 0.25L233.98 0.25Q232.23 0.25 229.8 0.18 227.38 0.1 225.23 0L225.23 0 225.38-7.5 225.23-24.9 234.98-25.1ZM234.58-2.8Q238.58-2.8 240.75-5.23 242.93-7.65 242.93-12.55L242.93-12.55Q242.93-17.35 240.88-19.65 238.83-21.95 234.68-21.95L234.68-21.95Q232.23-21.95 228.93-21.75L228.93-21.75 228.83-7.8 228.88-3.1Q230.33-3 231.93-2.9 233.53-2.8 234.58-2.8L234.58-2.8ZM272.82-24.9L272.67-12.25 272.67-8.65Q272.72-4.4 270.1-2.05 267.47 0.3 262.57 0.3L262.57 0.3Q257.72 0.3 255.17-2.02 252.62-4.35 252.72-8.65L252.72-8.65 252.77-12.45 252.72-24.9 256.47-24.9 256.27-9.25Q256.22-6.1 257.85-4.5 259.47-2.9 262.72-2.9L262.72-2.9Q265.92-2.9 267.57-4.5 269.22-6.1 269.17-9.25L269.17-9.25 269.02-24.9 272.82-24.9ZM294.17-3.15L294.37-2.8 294.12 0 280.87 0 281.02-7.5 280.87-24.9 284.62-24.9 284.47-7.8 284.57-3.15 294.17-3.15ZM308.87-25.15Q312.77-25.15 316.72-23.45L316.72-23.45 315.47-19.85 315.02-19.85Q313.17-21.05 311.62-21.53 310.07-22 308.27-22L308.27-22Q304.02-22 301.89-19.6 299.77-17.2 299.77-12.1L299.77-12.1Q299.77-7.2 301.72-5.03 303.67-2.85 307.92-2.85L307.92-2.85Q309.17-2.85 310.32-3.08 311.47-3.3 313.12-3.9L313.12-3.9 313.12-6.4 313.07-9.95 316.52-10.2 316.52-1.2Q311.47 0.3 307.77 0.3L307.77 0.3Q301.87 0.3 298.84-2.88 295.82-6.05 295.82-11.95L295.82-11.95Q295.82-18.35 299.24-21.75 302.67-25.15 308.87-25.15L308.87-25.15ZM332.92-3L339.57-3.2 339.87-2.9 339.52 0 324.37 0 324.52-7.5 324.37-24.9 339.62-24.9 339.87-24.6 339.57-21.7 333.27-21.9 328.07-21.85 328.02-14.3 332.97-14.25 337.32-14.4 337.57-14.05 337.27-11.1 332.67-11.25 328.02-11.2 327.97-7.8 328.02-3.05 332.92-3ZM366.91-25L366.76-7.45 366.81 0 362.81 0 349.71-19 349.46-19 349.41-8.3 349.51 0 346.11 0 346.26-7.35 346.16-24.9 350.11-24.9 363.21-5.9 363.56-5.9 363.46-24.75 366.91-25ZM384.76-25.15Q388.91-25.15 391.96-23.4L391.96-23.4 391.26-19.95 390.81-19.8Q389.56-20.85 387.91-21.45 386.26-22.05 384.36-22.05L384.36-22.05Q380.66-22.05 378.71-19.68 376.76-17.3 376.76-12.6L376.76-12.6Q376.76-7.85 378.71-5.35 380.66-2.85 384.36-2.85L384.36-2.85Q386.16-2.85 387.99-3.48 389.81-4.1 391.26-5.15L391.26-5.15 391.71-5 391.36-1.55Q387.96 0.3 384.21 0.3L384.21 0.3Q378.71 0.3 375.76-2.98 372.81-6.25 372.81-12.3L372.81-12.3Q372.81-18.45 375.94-21.8 379.06-25.15 384.76-25.15L384.76-25.15ZM406.66-3L413.31-3.2 413.61-2.9 413.26 0 398.11 0 398.26-7.5 398.11-24.9 413.36-24.9 413.61-24.6 413.31-21.7 407.01-21.9 401.81-21.85 401.76-14.3 406.71-14.25 411.06-14.4 411.31-14.05 411.01-11.1 406.41-11.25 401.76-11.2 401.71-7.8 401.76-3.05 406.66-3Z" opacity="1" transform="matrix(1,0,0,1,0,0)" fill="#ffffff" class="undefined-text-1" data-fill-palette-color="secondary" id="text-1"></path></svg></g></svg></g></svg></g></svg></g><g transform="matrix(1,0,0,1,0,0.21853218712892186)"><svg viewBox="0 0 76.14632801938512 87.41287485157142" height="87.41287485157142" width="76.14632801938512"><g><svg xmlns="http://www.w3.org/2000/svg" xmlns:xlink="http://www.w3.org/1999/xlink" version="1.1" x="0" y="0" viewBox="10.100000381469727 5.199999809265137 78.4000015258789 90" enable-background="new 0 0 100 100" xml:space="preserve" height="87.41287485157142" width="76.14632801938512" class="icon-icon-0" data-fill-palette-color="accent" id="icon-0"><polygon fill-rule="evenodd" clip-rule="evenodd" fill="#ffffff" points="88.5,28.2 68.4,59.9 68.5,22.3 " data-fill-palette-color="accent"></polygon><polygon fill-rule="evenodd" clip-rule="evenodd" fill="#ffffff" points="49.8,5.2 67.2,38.5 34.7,19.6 " data-fill-palette-color="accent"></polygon><polygon fill-rule="evenodd" clip-rule="evenodd" fill="#ffffff" points="67.8,38.3 67.8,22.3 60.8,24.5 " data-fill-palette-color="accent"></polygon><polygon fill-rule="evenodd" clip-rule="evenodd" fill="#ffffff" points="88.2,73.2 50.6,71.7 83.2,52.9 " data-fill-palette-color="accent"></polygon><polygon fill-rule="evenodd" clip-rule="evenodd" fill="#ffffff" points="69.1,60.3 82.8,52.3 77.4,47.4 " data-fill-palette-color="accent"></polygon><polygon fill-rule="evenodd" clip-rule="evenodd" fill="#ffffff" points="48.7,95.2 31.5,61.9 63.9,80.9 " data-fill-palette-color="accent"></polygon><polygon fill-rule="evenodd" clip-rule="evenodd" fill="#ffffff" points="50.5,72.2 64.2,80.2 65.8,73.1 " data-fill-palette-color="accent"></polygon><polygon fill-rule="evenodd" clip-rule="evenodd" fill="#ffffff" points="10.1,72 30.5,40.4 30.1,78 " data-fill-palette-color="accent"></polygon><polygon fill-rule="evenodd" clip-rule="evenodd" fill="#ffffff" points="30.9,62.1 30.8,78 37.8,75.8 " data-fill-palette-color="accent"></polygon><polygon fill-rule="evenodd" clip-rule="evenodd" fill="#ffffff" points="11,27 48.5,28.9 15.8,47.3 " data-fill-palette-color="accent"></polygon><polygon fill-rule="evenodd" clip-rule="evenodd" fill="#ffffff" points="30,40.1 16.1,47.9 21.5,52.9 " data-fill-palette-color="accent"></polygon><polygon fill-rule="evenodd" clip-rule="evenodd" fill="#ffffff" points="48.2,28.3 34.5,20.2 32.9,27.4 " data-fill-palette-color="accent"></polygon></svg></g></svg></g></svg></g><defs></defs></svg><rect width="395.5199999999999" height="69.07475926235304" fill="none" stroke="none" visibility="hidden"></rect></g></svg></g></svg>